<svg width="217" height="88" viewBox="0 0 217 88" fill="none" xmlns="http://www.w3.org/2000/svg">
<line x1="11.5" y1="9" x2="11.5" y2="71" stroke="#25DFEB" stroke-opacity="0.26"/>
<line x1="28.5" y1="9" x2="28.5" y2="71" stroke="#25DFEB" stroke-opacity="0.26"/>
<line x1="46.5" y1="8" x2="46.5" y2="70" stroke="#25DFEB" stroke-opacity="0.26"/>
<line x1="63.5" y1="8" x2="63.5" y2="70" stroke="#25DFEB" stroke-opacity="0.26"/>
<line x1="80.5" y1="8" x2="80.5" y2="70" stroke="#25DFEB" stroke-opacity="0.26"/>
<line x1="98.5" y1="8" x2="98.5" y2="70" stroke="#25DFEB" stroke-opacity="0.26"/>
<line x1="115.5" y1="8" x2="115.5" y2="70" stroke="#25DFEB" stroke-opacity="0.26"/>
<line x1="133.5" y1="8" x2="133.5" y2="70" stroke="#25DFEB" stroke-opacity="0.26"/>
<line x1="150.5" y1="9" x2="150.5" y2="71" stroke="#25DFEB" stroke-opacity="0.26"/>
<line x1="167.5" y1="9" x2="167.5" y2="71" stroke="#25DFEB" stroke-opacity="0.26"/>
<line x1="185.5" y1="9" x2="185.5" y2="71" stroke="#25DFEB" stroke-opacity="0.26"/>
<line x1="202.5" y1="11" x2="202.5" y2="73" stroke="#25DFEB" stroke-opacity="0.26"/>
<g filter="url(#filter0_i_1_44)">
<rect width="217" height="88" rx="5" fill="#1E293B" fill-opacity="0.51"/>
</g>
<g filter="url(#filter1_f_1_44)">
<path d="M15 64.0698C36.5 59.0698 38.5108 45.9125 53 45.5698C67.4892 45.2271 83.5 58.5698 93 50.5698C102.5 42.5698 119.656 25.4401 139.5 28.5698C147.631 29.8521 151 36.5698 159 36.5698C167 36.5698 184.52 12.543 193.5 14.0698" stroke="#1D59DD" stroke-width="3"/>
</g>
<path d="M15 61.0698C36.5 56.0698 38.5108 42.9125 53 42.5698C67.4892 42.2271 83.5 55.5698 93 47.5698C102.5 39.5698 119.656 22.4401 139.5 25.5698C147.631 26.8521 151 33.5698 159 33.5698C167 33.5698 184.52 9.54303 193.5 11.0698" stroke="#2563EB" stroke-width="3"/>
<defs>
<filter id="filter0_i_1_44" x="0" y="0" width="217" height="88" filterUnits="userSpaceOnUse" color-interpolation-filters="sRGB">
<feFlood flood-opacity="0" result="BackgroundImageFix"/>
<feBlend mode="normal" in="SourceGraphic" in2="BackgroundImageFix" result="shape"/>
<feColorMatrix in="SourceAlpha" type="matrix" values="0 0 0 0 0 0 0 0 0 0 0 0 0 0 0 0 0 0 127 0" result="hardAlpha"/>
<feOffset/>
<feGaussianBlur stdDeviation="2"/>
<feComposite in2="hardAlpha" operator="arithmetic" k2="-1" k3="1"/>
<feColorMatrix type="matrix" values="0 0 0 0 0.117647 0 0 0 0 0.160784 0 0 0 0 0.231373 0 0 0 1 0"/>
<feBlend mode="normal" in2="shape" result="effect1_innerShadow_1_44"/>
</filter>
<filter id="filter1_f_1_44" x="4.66023" y="2.49994" width="199.091" height="73.0309" filterUnits="userSpaceOnUse" color-interpolation-filters="sRGB">
<feFlood flood-opacity="0" result="BackgroundImageFix"/>
<feBlend mode="normal" in="SourceGraphic" in2="BackgroundImageFix" result="shape"/>
<feGaussianBlur stdDeviation="5" result="effect1_foregroundBlur_1_44"/>
</filter>
</defs>
</svg>
