<svg width="129" height="129" viewBox="0 0 129 129" fill="none" xmlns="http://www.w3.org/2000/svg">
<g clip-path="url(#clip0_2_179)">
<path d="M64.5 129C100.122 129 129 100.122 129 64.5C129 28.8776 100.122 0 64.5 0C28.8776 0 0 28.8776 0 64.5C0 100.122 28.8776 129 64.5 129Z" fill="#5865F2"/>
<path d="M86.852 43.9658C82.6701 42.0465 78.2569 40.6778 73.7228 39.8943C73.6815 39.8864 73.6388 39.8918 73.6008 39.9097C73.5628 39.9275 73.5314 39.957 73.5111 39.9938C72.9091 41.085 72.3625 42.206 71.8734 43.3523C66.9863 42.6101 62.015 42.6101 57.1279 43.3523C56.6366 42.2031 56.0823 41.0819 55.4675 39.9938C55.4464 39.9578 55.4149 39.929 55.3771 39.9112C55.3393 39.8934 55.297 39.8875 55.2558 39.8943C50.723 40.6766 46.3113 42.0453 42.1316 43.9658C42.0956 43.981 42.0652 44.0069 42.0447 44.0402C33.6836 56.5333 31.3934 68.719 32.5171 80.751C32.5203 80.7806 32.5294 80.8092 32.5439 80.8351C32.5584 80.8611 32.578 80.8839 32.6015 80.9022C37.4703 84.5088 42.9165 87.2619 48.7076 89.044C48.7485 89.0562 48.7921 89.0557 48.8326 89.0424C48.8731 89.0291 48.9086 89.0037 48.9343 88.9697C50.1778 87.2769 51.2796 85.4845 52.2286 83.6107C52.2416 83.5849 52.2489 83.5568 52.2502 83.528C52.2515 83.4993 52.2467 83.4706 52.2361 83.4438C52.2255 83.417 52.2094 83.3928 52.1888 83.3727C52.1682 83.3526 52.1435 83.3371 52.1165 83.3272C50.3788 82.6635 48.6963 81.8631 47.085 80.9337C47.0558 80.9165 47.0312 80.8923 47.0135 80.8634C46.9958 80.8344 46.9855 80.8016 46.9835 80.7677C46.9815 80.7338 46.9879 80.7 47.0021 80.6692C47.0163 80.6384 47.0378 80.6115 47.0649 80.591C47.4025 80.339 47.7413 80.0745 48.0638 79.8074C48.0925 79.7839 48.1271 79.7689 48.1638 79.764C48.2006 79.7591 48.2379 79.7645 48.2717 79.7797C58.8273 84.5996 70.2559 84.5996 80.6867 79.7797C80.7208 79.7634 80.7587 79.7571 80.7962 79.7616C80.8337 79.766 80.8691 79.7811 80.8984 79.8049C81.2209 80.0707 81.5598 80.3378 81.9062 80.591C81.9333 80.6113 81.9551 80.638 81.9695 80.6687C81.9839 80.6994 81.9905 80.7332 81.9887 80.767C81.987 80.8009 81.9769 80.8338 81.9595 80.8629C81.942 80.8919 81.9176 80.9162 81.8886 80.9337C80.2793 81.8721 78.5936 82.6728 76.8495 83.3272C76.8223 83.3375 76.7976 83.3534 76.777 83.3739C76.7564 83.3944 76.7404 83.419 76.73 83.4462C76.7197 83.4733 76.7152 83.5023 76.7169 83.5313C76.7186 83.5604 76.7264 83.5887 76.7399 83.6144C77.7047 85.478 78.8049 87.2683 80.0317 88.971C80.0565 89.006 80.0919 89.0323 80.1326 89.0461C80.1733 89.0599 80.2173 89.0605 80.2584 89.0478C86.0574 87.2709 91.5107 84.5174 96.3834 80.9059C96.4073 80.8886 96.4272 80.8664 96.4417 80.8407C96.4563 80.8151 96.4652 80.7866 96.4678 80.7573C97.8133 66.8444 94.2154 54.7582 86.9314 44.0452C86.9151 44.0102 86.887 43.9821 86.852 43.9658ZM53.8033 73.4254C50.6249 73.4254 48.0084 70.5078 48.0084 66.9251C48.0084 63.3423 50.5758 60.4247 53.8033 60.4247C57.0573 60.4247 59.6512 63.3675 59.5983 66.9251C59.6008 70.5078 57.0321 73.4254 53.8033 73.4254ZM75.2357 73.4254C72.0573 73.4254 69.4408 70.5078 69.4408 66.9251C69.4408 63.3423 72.0082 60.4247 75.2357 60.4247C78.4897 60.4247 81.0836 63.3675 81.0307 66.9251C81.0319 70.5078 78.4897 73.4254 75.2357 73.4254Z" fill="white"/>
</g>
<defs>
<clipPath id="clip0_2_179">
<rect width="129" height="129" fill="white"/>
</clipPath>
</defs>
</svg>
