<svg width="65" height="65" viewBox="0 0 65 65" fill="none" xmlns="http://www.w3.org/2000/svg">
<g clip-path="url(#clip0_2_159)">
<path d="M32.5 65C50.4493 65 65 50.4493 65 32.5C65 14.5507 50.4493 0 32.5 0C14.5507 0 0 14.5507 0 32.5C0 50.4493 14.5507 65 32.5 65Z" fill="#F2962C"/>
<path d="M39.7123 21.213C40.2753 20.9871 40.8504 20.7922 41.4348 20.6294C42.6173 20.3923 43.8448 20.5473 44.9312 21.0708C46.3571 21.7282 47.653 22.6369 48.7568 23.7534C48.8335 23.816 48.8968 23.8934 48.9429 23.981C48.9889 24.0687 49.0168 24.1647 49.0247 24.2634C49.0327 24.3621 49.0206 24.4613 48.9893 24.5552C48.9579 24.6491 48.9078 24.7357 48.8421 24.8097C47.5674 26.3097 45.9296 27.458 44.0849 28.145C42.9837 28.5265 41.7854 28.5217 40.6873 28.1315C40.646 28.12 40.6039 28.1114 40.5614 28.1057C40.8322 28.6176 41.1315 29.0983 41.3738 29.6034C42.0583 30.9707 42.3883 32.488 42.3337 34.016C42.279 35.544 41.8414 37.0338 41.061 38.3487C38.8883 42.4478 35.4093 45.7043 31.1756 47.6017C28.8369 48.6379 26.2789 49.0821 23.7277 48.8949C22.5428 48.8647 21.3725 48.6259 20.2705 48.1894C19.3947 47.8417 18.6542 47.2211 18.1586 46.4197C17.663 45.6182 17.4387 44.6785 17.5189 43.7396C17.5955 42.3533 18.182 41.0443 19.1655 40.0644C19.8307 39.3547 20.2675 38.4617 20.4195 37.5009C20.716 35.9667 20.9476 34.4162 21.2997 32.8968C21.6624 31.2222 22.3826 29.6457 23.4109 28.2751C24.4393 26.9046 25.7516 25.7724 27.258 24.9559C28.5561 24.2112 30.0082 23.7749 31.5018 23.681C32.9955 23.5871 34.4907 23.838 35.8719 24.4143C36.1089 24.5037 36.2077 24.4143 36.3363 24.2653C37.2782 23.165 37.9484 21.8588 38.2931 20.452C38.4881 19.7289 38.6005 18.9841 38.7346 18.2447C38.7581 18.0388 38.8594 17.8497 39.0177 17.7161C39.176 17.5824 39.3795 17.5143 39.5864 17.5256C39.6898 17.5316 39.7907 17.5595 39.8825 17.6075C39.9743 17.6554 40.0549 17.7223 40.1189 17.8037C40.1829 17.8851 40.2289 17.9792 40.2538 18.0798C40.2787 18.1803 40.282 18.285 40.2634 18.3869C40.1375 19.2183 39.956 20.043 39.7949 20.8704C39.7786 20.9991 39.7353 21.121 39.7123 21.213Z" fill="white"/>
</g>
<defs>
<clipPath id="clip0_2_159">
<rect width="65" height="65" fill="white"/>
</clipPath>
</defs>
</svg>
